Experimente toda a trama de Força-Tarefa @ VELOSO.TV 
http://u.veloso.tv/ud842d


Força-Tarefa é uma série que mostra o dia a dia da corregedoria da Polícia Militar do Estado do Rio de Janeiro, encarregada de investigar os delitos cometidos pelos próprios policiais. Este é o tema central de Força-Tarefa, série investigativa dirigida por José Alvarenga Jr. e Mário Márcio Bandarra e escrita por Fernando Bonassi e Marçal Aquino.

Na trama, a corregedoria chefiada pelo Coronel Caetano (Milton Gonçalves) tem seis policiais com a difícil missão de investigar a própria polícia. O Tenente Wilson (Murilo Benício) é o mais inflexível quando a lei é descumprida e segue à risca seus rígidos princípios de justiça e seus compromissos com a corporação, o que gera diversos conflitos com a namorada Jaqueline (Fabiula Nascimento).

Na equipe do Coronel estão ainda Selma (Hermila Guedes), Jorge (Rodrigo Einsfeld), Irineu (Juliano Cazarré), Oberdan (Henrique Neves) e Genival (Osvaldo Baraúna). Para solucionar os casos que chegam à corporação, Wilson conta com Samuca (Nando Cunha), seu principal informante, e com a figura de Jonas (Rogério Trindade), personagem que habita seu passado.


Screencap 
http://i.imgur.com/UEfqA.jpg

Gravação

Site oficial 
http://forcatarefa.globo.com

Wikipédia  
http://pt.wikipedia.org/wiki/Força_Tarefa_(série)

Orangotag 
http://orangotag.com/show/2870-for-a-tarefa


MediaInfo

General

Unique ID                                : 215751722329810502221836619283543048176 (0xA250452FAE6F63F2A8E19D7C68E73FF0)
Complete name                            : /home/ubuntu/Downloads/Forca.Tarefa.S03E06.720p.HDTV.x264-VCVix.mkv
Format                                   : Matroska
Format version                           : Version 2
File size                                : 939 MiB
Duration                                 : 34mn 9s
Overall bit rate                         : 3 842 Kbps
Encoded date                             : UTC 2011-12-09 09:52:11
Writing application                      : mkvmerge v3.3.0 ('Language') built on Mar 24 2010 14:59:24
Writing library                          : libebml v0.8.0 + libmatroska v0.9.0

Video

ID                                       : 1
Format                                   : AVC
Format/Info                              : Advanced Video Codec
Format profile                           : High@L3.1
Format settings, CABAC                   : Yes
Format settings, ReFrames                : 3 frames
Codec ID                                 : V_MPEG4/ISO/AVC
Duration                                 : 34mn 9s
Bit rate                                 : 3 574 Kbps
Width                                    : 1 280 pixels
Height                                   : 720 pixels
Display aspect ratio                     : 16:9
Frame rate                               : 29.970 fps
Color space                              : YUV
Chroma subsampling                       : 4:2:0
Bit depth                                : 8 bits
Scan type                                : Progressive
Bits/(Pixel*Frame)                       : 0.129
Stream size                              : 873 MiB (93%)
Language                                 : English
Default                                  : No
Forced                                   : No

Audio

ID                                       : 2
Format                                   : AC-3
Format/Info                              : Audio Coding 3
Mode extension                           : CM (complete main)
Codec ID                                 : A_AC3
Duration                                 : 34mn 9s
Bit rate mode                            : Constant
Bit rate                                 : 192 Kbps
Channel(s)                               : 2 channels
Channel positions                        : Front: L R
Sampling rate                            : 48.0 KHz
Bit depth                                : 16 bits
Compression mode                         : Lossy
Delay relative to video                  : 31ms
Stream size                              : 46.9 MiB (5%)
Language                                 : Portuguese
Default                                  : Yes
Forced                                   : No